<svg xmlns="http://www.w3.org/2000/svg" viewBox="0 0 520 160" preserveAspectRatio="xMidYMid meet" role="img" aria-label="doktorhaus">
  <path fill="#2d3038" d="M109.17 151.34 c1.67 -1.59 2.26 -4.44 5.27 -26.46 6.45 -47.80 8.29 -60.45 8.62 -60.78 0.17 -0.25 1.34 0 2.60 0.50 6.45 2.43 10.05 0.33 14.90 -8.54 l2.76 -4.86 28.21 0 28.21 0 2.26 -1.93 c3.18 -2.76 3.10 -6.78 0 -9.54 l-2.34 -2.01 -31.56 0.25 -31.65 0.25 -3.01 2.34 c-1.59 1.26 -3.18 2.26 -3.43 2.26 -0.25 0 -1.42 -1.84 -2.60 -4.19 -3.85 -7.53 -8.12 -9.46 -12.56 -5.61 -2.01 1.67 -2.34 3.01 -4.60 19 -1.34 9.46 -2.85 21.10 -3.43 25.95 -0.50 4.86 -1.26 9.13 -1.59 9.46 -0.33 0.33 -1.76 -10.80 -3.27 -24.70 -6.95 -64.47 -8.29 -74.43 -10.21 -76.52 -2.18 -2.34 -6.20 -2.68 -8.87 -0.75 -2.09 1.51 -1.67 0.17 -10.38 31.81 -3.77 13.81 -6.95 25.28 -7.12 25.45 -0.17 0.17 -2.26 -0.67 -4.60 -1.93 l-4.44 -2.18 -30.39 0 c-33.32 0 -34.24 0.08 -36.17 4.86 -0.67 1.59 -0.75 3.01 -0.17 4.44 1.67 4.52 1.51 4.52 32.90 4.94 l29.30 0.42 4.52 7.53 c5.19 8.54 7.12 10.47 10.30 10.47 5.36 0 6.03 -1.26 12.56 -26.29 2.34 -8.62 4.35 -15.91 4.52 -16.16 0.50 -0.50 1.09 3.60 4.35 33.66 7.95 73.34 9.71 86.99 11.13 88.58 3.01 3.43 6.61 3.52 9.96 0.25z m-26.54 -37.59 c0 -2.43 -0.42 -4.86 -1 -5.44 -0.75 -0.75 -7.28 -1 -24.28 -1 -21.68 0 -23.61 -0.08 -26.62 -1.67 -4.44 -2.26 -7.37 -6.36 -8.37 -11.72 -0.42 -2.43 -0.84 -10.21 -0.84 -17.25 l0 -12.89 -5.11 0 -5.11 0 0.33 17.41 c0.25 16.33 0.42 17.58 2.26 21.10 4.27 7.95 8.37 11.64 16.24 14.32 3.77 1.34 7.45 1.51 28.47 1.59 l24.03 0 0 -4.44z m83.89 1.76 c5.53 -2.60 10.72 -7.62 13.40 -13.06 1.84 -3.77 1.93 -4.86 1.93 -21.93 l0 -17.92 -5.02 -0.08 -5.02 0 -0.17 15.07 c-0.17 18.17 -0.42 19.84 -3.18 23.53 -4.27 5.53 -6.78 6.20 -24.20 6.20 -9.71 0 -15.66 0.33 -15.99 0.84 -0.33 0.50 -0.75 3.01 -1 5.53 l-0.50 4.69 17.50 -0.33 c16.91 -0.25 17.67 -0.33 22.27 -2.51z m-144.75 -89.16 c0.25 -0.84 0.42 -4.60 0.50 -8.46 0.17 -10.88 -1.34 -9.21 32.32 -36.67 12.89 -10.47 25.87 -21.10 28.88 -23.53 7.62 -6.28 14.07 -7.70 20.18 -4.60 1.67 0.84 7.28 5.11 12.56 9.46 5.27 4.44 18.67 15.49 29.89 24.61 11.22 9.13 21.35 17.92 22.60 19.51 2.01 2.68 2.26 3.77 2.51 11.22 l0.33 8.20 5.44 0 5.44 0 -0.33 -8.62 c-0.42 -11.39 -2.51 -15.91 -10.88 -23.36 -3.27 -2.85 -6.45 -6.45 -7.03 -7.95 -0.84 -1.93 -1.17 -6.87 -1.17 -16.83 0 -17.67 0.50 -16.91 -12.06 -17.08 -10.63 -0.08 -12.22 0.75 -12.22 6.53 0 2.09 -0.50 4.10 -1.34 4.86 -1.59 1.67 -2.51 1.09 -15.15 -9.54 -11.30 -9.63 -15.66 -11.89 -23.19 -12.39 -11.64 -0.75 -13.40 0.33 -47.80 28.72 -33.91 27.96 -33.99 28.05 -36.84 33.15 -2.18 4.10 -2.43 5.44 -2.76 14.40 l-0.33 9.80 5.02 0 c4.10 0 5.19 -0.25 5.44 -1.42z"/>
  <text x="250" y="125" fill="#2d3038" font-family="system-ui, -apple-system, 'Segoe UI', Roboto, sans-serif" font-size="78" font-weight="800" letter-spacing="-4">doktorhaus</text>
</svg>
