<svg xmlns="http://www.w3.org/2000/svg" width="1640" height="624" viewBox="0 0 1640 624" role="img" aria-label="DoktorHaus - technicka kontrola nehnutelnosti">
  <defs>
    <linearGradient id="bg" x1="0" y1="0" x2="0" y2="1">
      <stop offset="0" stop-color="#fafbf9"/>
      <stop offset="1" stop-color="#edf1ee"/>
    </linearGradient>
    <pattern id="grid" width="48" height="48" patternUnits="userSpaceOnUse">
      <path d="M 48 0 L 0 0 0 48" fill="none" stroke="#365e57" stroke-width="1" opacity="0.055"/>
    </pattern>
    <filter id="softShadow" x="-20%" y="-20%" width="140%" height="140%">
      <feDropShadow dx="0" dy="18" stdDeviation="18" flood-color="#1c1f23" flood-opacity="0.08"/>
    </filter>
  </defs>

  <rect width="1640" height="624" fill="url(#bg)"/>
  <rect width="1640" height="624" fill="url(#grid)"/>

  <path d="M1110 0 L1640 0 L1640 624 L1350 624 C1270 470 1196 350 1122 242 C1080 181 1082 76 1110 0Z" fill="#e1e9e5" opacity="0.78"/>
  <path d="M1264 118 L1588 118 L1588 506 L1264 506 Z" fill="#fbfcfb" stroke="#d9dfdb" stroke-width="2" filter="url(#softShadow)"/>
  <path d="M1304 288 L1432 180 L1560 288" fill="none" stroke="#365e57" stroke-width="10" stroke-linecap="round" stroke-linejoin="round"/>
  <path d="M1332 286 L1332 442 L1532 442 L1532 286" fill="none" stroke="#365e57" stroke-width="10" stroke-linecap="round" stroke-linejoin="round"/>
  <path d="M1362 348 L1502 348" stroke="#d9dfdb" stroke-width="8" stroke-linecap="round"/>
  <path d="M1362 388 L1468 388" stroke="#d9dfdb" stroke-width="8" stroke-linecap="round"/>
  <path d="M1214 220 C1250 220 1268 248 1288 270 C1320 306 1358 266 1380 298 C1398 324 1405 356 1444 344 C1476 334 1488 306 1526 318 C1552 326 1564 350 1594 350" fill="none" stroke="#365e57" stroke-width="7" stroke-linecap="round" opacity="0.22"/>

  <g transform="translate(108 86)">
    <image href="../icons/doktorhaus-logo.svg" width="430" height="132"/>
  </g>

  <g transform="translate(116 236)">
    <text x="0" y="0" fill="#1c1f23" font-family="system-ui, -apple-system, Segoe UI, Roboto, sans-serif" font-size="62" font-weight="650">
      Technicka kontrola
    </text>
    <text x="0" y="76" fill="#1c1f23" font-family="system-ui, -apple-system, Segoe UI, Roboto, sans-serif" font-size="62" font-weight="650">
      nehnutelnosti
    </text>
    <rect x="0" y="112" width="650" height="2" fill="#365e57" opacity="0.28"/>
    <text x="0" y="176" fill="#667077" font-family="system-ui, -apple-system, Segoe UI, Roboto, sans-serif" font-size="30" font-weight="400">
      Odborny pohlad pred kupou, predajom alebo rekonstrukciou.
    </text>
  </g>

  <g transform="translate(116 520)" font-family="system-ui, -apple-system, Segoe UI, Roboto, sans-serif" font-size="24" font-weight="600">
    <rect x="0" y="-34" width="246" height="54" rx="8" fill="#365e57"/>
    <text x="28" y="1" fill="#ffffff">doktorhaus.sk</text>
    <text x="282" y="1" fill="#667077" font-weight="500">inspekcia domov a bytov</text>
  </g>
</svg>
